<svg width="61" height="60" viewBox="0 0 61 60" fill="none" xmlns="http://www.w3.org/2000/svg">
<g clip-path="url(#clip0_235_185)">
<path fill-rule="evenodd" clip-rule="evenodd" d="M33.5 48C35.0913 48 36.6174 48.6321 37.7426 49.7574C38.8679 50.8826 39.5 52.4087 39.5 54C39.5 55.5913 38.8679 57.1174 37.7426 58.2426C36.6174 59.3679 35.0913 60 33.5 60C31.9087 60 30.3826 59.3679 29.2574 58.2426C28.1321 57.1174 27.5 55.5913 27.5 54C27.5 52.4087 28.1321 50.8826 29.2574 49.7574C30.3826 48.6321 31.9087 48 33.5 48ZM14.723 39C16.7121 39 18.6198 39.7902 20.0263 41.1967C21.4328 42.6032 22.223 44.5109 22.223 46.5C22.223 48.4891 21.4328 50.3968 20.0263 51.8033C18.6198 53.2098 16.7121 54 14.723 54C12.7339 54 10.8262 53.2098 9.4197 51.8033C8.01318 50.3968 7.223 48.4891 7.223 46.5C7.223 44.5109 8.01318 42.6032 9.4197 41.1967C10.8262 39.7902 12.7339 39 14.723 39ZM49.457 40.5C51.0483 40.5 52.5744 41.1321 53.6996 42.2574C54.8249 43.3826 55.457 44.9087 55.457 46.5C55.457 48.0913 54.8249 49.6174 53.6996 50.7426C52.5744 51.8679 51.0483 52.5 49.457 52.5C47.8657 52.5 46.3396 51.8679 45.2144 50.7426C44.0891 49.6174 43.457 48.0913 43.457 46.5C43.457 44.9087 44.0891 43.3826 45.2144 42.2574C46.3396 41.1321 47.8657 40.5 49.457 40.5ZM56 27.957C57.1935 27.957 58.3381 28.4311 59.182 29.275C60.0259 30.1189 60.5 31.2635 60.5 32.457C60.5 33.6505 60.0259 34.7951 59.182 35.639C58.3381 36.4829 57.1935 36.957 56 36.957C54.8065 36.957 53.6619 36.4829 52.818 35.639C51.9741 34.7951 51.5 33.6505 51.5 32.457C51.5 31.2635 51.9741 30.1189 52.818 29.275C53.6619 28.4311 54.8065 27.957 56 27.957ZM8 18C9.98912 18 11.8968 18.7902 13.3033 20.1967C14.7098 21.6032 15.5 23.5109 15.5 25.5C15.5 27.4891 14.7098 29.3968 13.3033 30.8033C11.8968 32.2098 9.98912 33 8 33C6.01088 33 4.10322 32.2098 2.6967 30.8033C1.29018 29.3968 0.5 27.4891 0.5 25.5C0.5 23.5109 1.29018 21.6032 2.6967 20.1967C4.10322 18.7902 6.01088 18 8 18ZM53.858 15.621C54.6536 15.621 55.4167 15.9371 55.9793 16.4997C56.5419 17.0623 56.858 17.8253 56.858 18.621C56.858 19.4166 56.5419 20.1797 55.9793 20.7423C55.4167 21.3049 54.6536 21.621 53.858 21.621C53.0623 21.621 52.2993 21.3049 51.7367 20.7423C51.1741 20.1797 50.858 19.4166 50.858 18.621C50.858 17.8253 51.1741 17.0623 51.7367 16.4997C52.2993 15.9371 53.0623 15.621 53.858 15.621ZM24.5 0C26.8869 0 29.1761 0.948211 30.864 2.63604C32.5518 4.32387 33.5 6.61305 33.5 9C33.5 11.3869 32.5518 13.6761 30.864 15.364C29.1761 17.0518 26.8869 18 24.5 18C22.1131 18 19.8239 17.0518 18.136 15.364C16.4482 13.6761 15.5 11.3869 15.5 9C15.5 6.61305 16.4482 4.32387 18.136 2.63604C19.8239 0.948211 22.1131 0 24.5 0V0ZM47 9C47.3978 9 47.7794 9.15804 48.0607 9.43934C48.342 9.72064 48.5 10.1022 48.5 10.5C48.5 10.8978 48.342 11.2794 48.0607 11.5607C47.7794 11.842 47.3978 12 47 12C46.6022 12 46.2206 11.842 45.9393 11.5607C45.658 11.2794 45.5 10.8978 45.5 10.5C45.5 10.1022 45.658 9.72064 45.9393 9.43934C46.2206 9.15804 46.6022 9 47 9Z" fill="#007AFF"/>
</g>
<defs>
<clipPath id="clip0_235_185">
<rect width="60" height="60" fill="white" transform="translate(0.5)"/>
</clipPath>
</defs>
</svg>
