<svg width="24" height="24" viewBox="0 0 24 24" fill="none" xmlns="http://www.w3.org/2000/svg">
<path d="M9 17.625C9.0736 19.4769 10.6169 21.0494 12.6844 20.9988C13.1654 20.987 13.7599 20.8194 14.9489 20.484C17.8104 19.6768 20.2944 18.3203 20.8904 15.2815C21 14.723 21 14.0944 21 12.8373V11.1627C21 9.90561 21 9.27705 20.8904 8.71846C20.2944 5.67965 17.8104 4.32316 14.9489 3.51603C13.7599 3.18064 13.1654 3.01295 12.6844 3.00119C10.6169 2.95061 9.0736 4.52307 9 6.37501" stroke="#EF4444" stroke-width="1.5" stroke-linecap="round"/>
<path d="M3 12H14M3 12C3 11.2998 4.9943 9.99153 5.5 9.5M3 12C3 12.7002 4.9943 14.0085 5.5 14.5" stroke="#EF4444" stroke-width="1.5" stroke-linecap="round" stroke-linejoin="round"/>
</svg>
