<svg width="24" height="24" viewBox="0 0 24 24" fill="none" xmlns="http://www.w3.org/2000/svg">
<path d="M18.75 3.75H18.6225V5.25H18.75C18.9489 5.25 19.1397 5.32902 19.2803 5.46967C19.421 5.61032 19.5 5.80109 19.5 6V21C19.5 21.1989 19.421 21.3897 19.2803 21.5303C19.1397 21.671 18.9489 21.75 18.75 21.75H5.25C5.05109 21.75 4.86032 21.671 4.71967 21.5303C4.57902 21.3897 4.5 21.1989 4.5 21V6C4.5 5.80109 4.57902 5.61032 4.71967 5.46967C4.86032 5.32902 5.05109 5.25 5.25 5.25H5.3775V3.75H5.25C4.65326 3.75 4.08097 3.98705 3.65901 4.40901C3.23705 4.83097 3 5.40326 3 6V21C3 21.5967 3.23705 22.169 3.65901 22.591C4.08097 23.0129 4.65326 23.25 5.25 23.25H18.75C19.3467 23.25 19.919 23.0129 20.341 22.591C20.7629 22.169 21 21.5967 21 21V6C21 5.40326 20.7629 4.83097 20.341 4.40901C19.919 3.98705 19.3467 3.75 18.75 3.75Z" fill="black"/>
<path d="M17.25 2.25H15V0H9V2.25H6.75V6.75H17.25V2.25ZM15.75 5.25H8.25V3.75H10.5V1.5H13.5V3.75H15.75V5.25Z" fill="black"/>
<path d="M7.5 9.75H16.5V11.25H7.5V9.75ZM7.5 13.5H16.5V15H7.5V13.5ZM7.5 17.25H16.5V18.75H7.5V17.25Z" fill="black"/>
</svg>
