<svg width="187" height="180" viewBox="0 0 187 180" fill="none" xmlns="http://www.w3.org/2000/svg">
<circle cx="96.0002" cy="90.5" r="70.5" fill="#007AFF"/>
<circle cx="178.967" cy="27.5" r="7.5" fill="#007AFF"/>
<circle cx="20.5334" cy="10" r="10" fill="#007AFF"/>
<circle cx="10.5334" cy="133" r="5" fill="#007AFF"/>
<circle cx="166.033" cy="160.5" r="2.5" fill="#007AFF"/>
<path d="M106.67 65.9164C115.004 65.9166 120.584 71.7677 120.584 80.4701V100.557C120.584 109.232 115.004 115.083 106.67 115.083H85.3557C77.0222 115.083 71.4173 109.232 71.4172 100.557V80.4701C71.4172 71.7677 77.0221 65.9165 85.3557 65.9164H106.67ZM106.277 83.1244C105.441 82.2886 104.064 82.2886 103.228 83.1244L93.0754 93.2777L88.7727 88.976C87.9369 88.1401 86.5607 88.1401 85.7249 88.976C84.8891 89.8118 84.8891 91.1634 85.7249 92.0238L91.5754 97.85C91.9934 98.2679 92.5346 98.4642 93.0754 98.4642C93.6407 98.4642 94.1811 98.2677 94.5989 97.85L106.277 86.1732C107.112 85.3374 107.112 83.9848 106.277 83.1244Z" fill="white"/>
<circle cx="107.033" cy="4.5" r="2.5" fill="#007AFF"/>
<circle cx="63.0334" cy="176.5" r="3.5" fill="#007AFF"/>
<circle cx="122.533" cy="171" r="1" fill="#007AFF"/>
<circle cx="171.033" cy="110.5" r="2.5" fill="#007AFF"/>
<circle cx="1.53345" cy="75" r="1" fill="#007AFF"/>
</svg>
